<?xml version="1.0" encoding="UTF-8"?>
<!DOCTYPE svg PUBLIC "-//W3C//DTD SVG 1.1//EN" "http://www.w3.org/Graphics/SVG/1.1/DTD/svg11.dtd">
<!-- Creator: CorelDRAW 2018 (64 Bit) -->
<svg xmlns="http://www.w3.org/2000/svg" xml:space="preserve" width="33.2956mm" height="8.4971mm" version="1.1" style="shape-rendering:geometricPrecision; text-rendering:geometricPrecision; image-rendering:optimizeQuality; fill-rule:evenodd; clip-rule:evenodd"
viewBox="0 0 263.07 67.14"
 xmlns:xlink="http://www.w3.org/1999/xlink">
 <defs>
  <style type="text/css">
   <![CDATA[
    .fil1 {fill:#FEFEFE;fill-rule:nonzero}
    .fil0 {fill:url(#id0);fill-rule:nonzero}
   ]]>
  </style>
  <linearGradient id="id0" gradientUnits="userSpaceOnUse" x1="10.73" y1="33.65" x2="45.15" y2="60.93">
   <stop offset="0" style="stop-opacity:1; stop-color:#F3D251"/>
   <stop offset="0.141176" style="stop-opacity:1; stop-color:#DBAB33"/>
   <stop offset="0.278431" style="stop-opacity:1; stop-color:#CA8E1C"/>
   <stop offset="0.631373" style="stop-opacity:1; stop-color:#F1CE4E"/>
   <stop offset="1" style="stop-opacity:1; stop-color:#C38315"/>
  </linearGradient>
 </defs>
 <g id="Camada_x0020_1">
  <metadata id="CorelCorpID_0Corel-Layer"/>
  <path class="fil0" d="M48.74 52.92c-1.26,0 -2.08,0.48 -2.47,1.43 -0.39,0.95 -0.3,2.09 0.26,3.41 0.91,2.11 2.51,4.06 4.82,4.64 0.45,0.11 0.64,0.63 0.38,1.01 -0.74,1.08 -1.97,1.34 -3.21,1.3 -1.11,-0.09 -1.98,-0.5 -2.61,-1.24 -0.59,-0.7 -1.16,-1.54 -1.53,-2.37 -1.65,-3.96 -3.32,-7.9 -5.04,-11.84 -0.2,-0.47 -0.58,-1.37 -1.05,-2.49 0.47,-1.12 0.85,-2.03 1.05,-2.49 1.41,-3.24 2.81,-6.48 4.16,-9.74 0.75,-1.81 1.09,-2.9 2.41,-4.47 0.77,-0.91 1.82,-1.24 2.96,-1.24 1.12,0 2.21,0.35 2.86,1.3 0.26,0.38 0.07,0.9 -0.38,1.01 -2.31,0.58 -3.91,2.53 -4.82,4.64 -0.56,1.32 -0.65,2.46 -0.26,3.41 0.39,0.95 1.21,1.43 2.47,1.43 2.99,0 5.02,-2.27 6.11,-4.84 0.85,-2.07 0.97,-4.39 -0.23,-6.36 -1.37,-2.24 -3.91,-3.01 -6.41,-3.01 -5.87,0 -9.42,2.77 -11.7,8.06l-0.01 0.02c-0.53,1.35 -1.08,2.7 -1.64,4.05 -0.46,-1.1 -0.82,-1.96 -0.99,-2.38 -0.86,-2.03 -1.71,-4.07 -2.59,-6.09 -0.19,-0.44 0.13,-0.92 0.6,-0.92l0.46 0 1.38 0c0.25,0 0.47,-0.13 0.58,-0.35l0.74 -1.41c0.11,-0.21 0.1,-0.44 -0.02,-0.65 -0.12,-0.2 -0.33,-0.32 -0.56,-0.32l-11.77 0 -1.31 0c-0.26,0 -0.47,0.14 -0.59,0.36l-0.71 1.41c-0.1,0.21 -0.09,0.44 0.03,0.64 0.12,0.2 0.33,0.31 0.56,0.31l1.08 0 0.01 0 1.83 0 0.01 0c0.22,0 0.42,0.11 0.54,0.3 0.12,0.19 0.14,0.41 0.05,0.62 -0.18,0.41 -0.4,0.93 -0.67,1.56 -0.54,1.28 -1.18,2.79 -1.92,4.53 -0.18,0.42 -0.54,1.28 -0.99,2.38 -0.31,-0.74 -0.58,-1.42 -0.83,-2.04 -0.41,-1 -0.68,-1.67 -0.81,-2.01 -0,-0.01 -0,-0.01 -0.01,-0.02 -1.21,-2.81 -2.77,-4.85 -4.68,-6.13 -1.91,-1.28 -4.25,-1.92 -7.03,-1.92l-0.25 0c-0.01,0 -0.01,0 -0.02,0 -1.52,0.04 -2.78,0.33 -3.8,0.87 -1.02,0.54 -1.8,1.25 -2.34,2.14 -0.54,0.89 -0.83,1.88 -0.88,2.98 -0.04,1.1 0.17,2.22 0.65,3.38 0.65,1.53 1.51,2.72 2.57,3.57 1.06,0.85 2.24,1.27 3.54,1.27 1.26,0 2.08,-0.48 2.47,-1.43 0.39,-0.95 0.3,-2.09 -0.26,-3.41 -0.61,-1.41 -1.4,-2.52 -2.38,-3.35 -0.76,-0.64 -1.57,-1.07 -2.44,-1.29 -0.22,-0.05 -0.38,-0.2 -0.46,-0.41 -0.08,-0.21 -0.05,-0.42 0.07,-0.61 0.19,-0.27 0.42,-0.51 0.71,-0.71 0.56,-0.39 1.28,-0.59 2.15,-0.59l0.3 0c0.02,0 0.03,0 0.05,0 1.11,0.09 1.98,0.5 2.61,1.24 0.62,0.74 1.13,1.52 1.52,2.34 0.01,0.01 0.01,0.02 0.01,0.03 0.09,0.22 0.38,0.92 0.87,2.1 0.5,1.2 1.11,2.64 1.82,4.31 0.72,1.68 1.5,3.49 2.34,5.43 0.2,0.47 0.58,1.37 1.05,2.49 -0.47,1.12 -0.85,2.03 -1.05,2.49 -0.85,1.95 -1.63,3.75 -2.34,5.43 -0.72,1.68 -1.32,3.11 -1.82,4.31 -0.49,1.17 -0.78,1.87 -0.87,2.1 -0,0.01 -0.01,0.02 -0.01,0.03 -0.39,0.82 -0.9,1.6 -1.52,2.34 -0.62,0.74 -1.49,1.15 -2.61,1.24 -0.02,0 -0.03,0 -0.05,0l-0.3 0c-0.87,0 -1.58,-0.2 -2.15,-0.59 -0.29,-0.2 -0.53,-0.44 -0.71,-0.71 -0.12,-0.18 -0.15,-0.4 -0.07,-0.61 0.08,-0.21 0.24,-0.35 0.46,-0.41 0.87,-0.22 1.69,-0.65 2.44,-1.29 0.98,-0.83 1.77,-1.94 2.37,-3.35 0.56,-1.32 0.65,-2.46 0.26,-3.41 -0.39,-0.95 -1.21,-1.43 -2.47,-1.43 -1.3,0 -2.48,0.42 -3.54,1.27 -1.06,0.85 -1.92,2.04 -2.57,3.57 -0.48,1.16 -0.69,2.28 -0.65,3.38 0.04,1.1 0.34,2.09 0.88,2.98 0.54,0.89 1.32,1.6 2.34,2.14 1.02,0.54 2.28,0.83 3.8,0.87 0.01,0 0.01,0 0.02,0l0.25 0c2.78,0 5.12,-0.64 7.03,-1.92 1.9,-1.28 3.46,-3.33 4.68,-6.14 0,-0.01 0.01,-0.01 0.01,-0.02 0.13,-0.33 0.4,-1 0.81,-2.01 0.25,-0.61 0.53,-1.29 0.83,-2.04 0.46,1.1 0.81,1.96 0.99,2.38 0.74,1.74 1.38,3.25 1.92,4.53 0.27,0.63 0.49,1.15 0.67,1.56 0.09,0.21 0.07,0.43 -0.05,0.62 -0.13,0.19 -0.32,0.3 -0.55,0.3l-0.21 0 -0.02 0 -2.7 0c-0.24,0 -0.44,0.11 -0.56,0.31 -0.12,0.2 -0.13,0.43 -0.03,0.64l0.71 1.41c0.12,0.23 0.33,0.36 0.59,0.36l2.24 0 10.37 0 0.46 0c0.24,0 0.44,-0.11 0.56,-0.32 0.12,-0.2 0.13,-0.44 0.02,-0.65l-0.74 -1.41c-0.12,-0.22 -0.33,-0.35 -0.58,-0.35l-1.2 0 -0.64 0c-0.48,0 -0.79,-0.48 -0.6,-0.92 0.88,-2.02 1.72,-4.06 2.59,-6.09 0.18,-0.42 0.54,-1.28 0.99,-2.38 0.56,1.34 1.11,2.69 1.64,4.05l0.01 0.02c2.29,5.29 5.84,8.06 11.71,8.06 2.49,0 5.04,-0.77 6.41,-3.01 1.2,-1.97 1.08,-4.29 0.23,-6.36 -1.09,-2.57 -3.12,-4.84 -6.11,-4.84zm-43.33 -45.38l5.41 17.24c0.02,0.08 0.08,0.14 0.15,0.17 0.07,0.04 0.15,0.04 0.23,0.01 11.17,-4.52 21.93,-4.52 33.1,0 0.08,0.03 0.16,0.03 0.23,-0.01 0.08,-0.04 0.13,-0.09 0.15,-0.17l5.41 -17.24c0.03,-0.08 0.02,-0.17 -0.03,-0.24 -0.05,-0.07 -0.12,-0.12 -0.2,-0.13 -1.88,-0.27 -3.85,0.63 -4.95,2.15 -0.04,0.05 -0.05,0.1 -0.05,0.16l-0.13 4.3c-0.11,3.88 -1.56,5.71 -5.39,5.26l-5.37 -0.62c-3.96,-0.46 -4.13,-6.36 -4.07,-9.45 1.54,-0.78 2.6,-2.38 2.6,-4.23 0,-2.62 -2.12,-4.74 -4.74,-4.74 -2.62,0 -4.74,2.12 -4.74,4.74 0,1.85 1.06,3.45 2.6,4.23 0.06,3.09 -0.11,8.99 -4.07,9.45l-5.37 0.62c-3.84,0.44 -5.28,-1.38 -5.39,-5.26l-0.12 -4.3c-0,-0.06 -0.02,-0.11 -0.06,-0.16 -1.1,-1.52 -3.07,-2.42 -4.95,-2.15 -0.09,0.01 -0.16,0.06 -0.2,0.13 -0.05,0.07 -0.06,0.16 -0.03,0.24zm22.34 48.43c-0.8,-1.98 -2.59,-6.39 -3.73,-9.2 1.14,-2.81 2.94,-7.23 3.73,-9.2 1.24,3.07 2.48,6.14 3.73,9.2 -1.25,3.06 -2.49,6.13 -3.73,9.2z"/>
  <g id="_2079175308240">
   <path class="fil1" d="M103.01 43.47c-0.33,0.82 -0.8,1.58 -1.42,2.29 -0.7,0.8 -1.49,1.52 -2.37,2.15 -0.88,0.63 -1.82,1.12 -2.8,1.47 -0.99,0.35 -1.97,0.53 -2.96,0.53 -2.01,0 -3.46,-0.64 -4.34,-1.91 -0.88,-1.27 -0.87,-3.14 0.03,-5.61 0,-0 0,-0.01 0,-0.01l0.65 -1.67c0.08,-0.2 0.05,-0.4 -0.07,-0.58 -0.12,-0.17 -0.3,-0.27 -0.52,-0.27l-6.52 0c-0.25,0 -0.46,0.13 -0.56,0.35l-1.92 3.98c-0,0.01 -0.01,0.02 -0.01,0.03 -0.45,1.05 -0.55,1.76 -0.3,2.13 0.19,0.28 0.58,0.46 1.16,0.53 0.23,0.03 0.41,0.16 0.5,0.38 0.09,0.21 0.06,0.44 -0.08,0.62l-1.07 1.37c-0.1,0.13 -0.23,0.2 -0.39,0.23 -0.37,0.06 -0.74,0.13 -1.11,0.19 -0,0 -0.01,0 -0.01,0 -0.41,0.08 -0.83,0.14 -1.26,0.18 -0.43,0.04 -0.85,0.06 -1.26,0.06 -2.34,0 -3.64,-0.62 -3.88,-1.85 -0.25,-1.23 0.55,-3.16 2.4,-5.79 0.41,-0.59 0.96,-1.38 1.66,-2.38 0.7,-1 1.41,-2.01 2.13,-3.03 0.72,-1.02 1.39,-1.96 2,-2.82 0.61,-0.85 1.04,-1.46 1.29,-1.81 0,-0.01 0.01,-0.01 0.01,-0.02 1.6,-2.11 3.03,-4.01 4.28,-5.69 1.25,-1.69 2.46,-3.12 3.63,-4.29 1.17,-1.18 2.38,-2.08 3.64,-2.7 1.25,-0.63 2.66,-0.94 4.22,-0.94 0.99,0 1.86,0.16 2.62,0.47 0.76,0.31 1.35,0.78 1.76,1.41 0.41,0.63 0.64,1.41 0.68,2.35 0.04,0.94 -0.17,2.02 -0.62,3.23l-6.28 17.1c-0,0 -0,0.01 -0,0.01 -0.29,0.74 -0.21,1.28 0.22,1.61 0.43,0.33 1,0.43 1.69,0.29 0.7,-0.14 1.45,-0.5 2.25,-1.09 0.56,-0.41 1.04,-0.94 1.43,-1.59 0.11,-0.18 0.29,-0.29 0.51,-0.3 0.22,-0.01 0.41,0.09 0.53,0.26l0.38 0.54c0.13,0.18 0.15,0.39 0.07,0.59zm-11.68 -7.02l4.16 -11.17c0.37,-1.02 0.49,-1.81 0.37,-2.38 -0.12,-0.57 -0.43,-0.84 -0.93,-0.82 -0.49,0.02 -1.16,0.36 -2,1.03 -0.84,0.67 -1.78,1.71 -2.8,3.12 -1.07,1.49 -2.15,3.18 -3.23,5.08 -0.9,1.58 -1.76,3.13 -2.57,4.64 -0.11,0.2 -0.1,0.42 0.02,0.61 0.12,0.19 0.31,0.3 0.54,0.3l5.86 0c0.27,0 0.49,-0.16 0.59,-0.41zm16.18 7.69c-0.33,0.82 -0.37,1.47 -0.12,1.94 0.22,0.41 0.7,0.64 1.45,0.69 0.21,0.02 0.39,0.13 0.5,0.31 0.11,0.18 0.12,0.39 0.02,0.59l-0.67 1.38c-0.09,0.18 -0.23,0.29 -0.42,0.34 -0.24,0.05 -0.49,0.11 -0.75,0.17 -0,0 -0.01,0 -0.01,0 -0.62,0.12 -1.37,0.18 -2.27,0.18 -2.34,0 -3.81,-0.61 -4.41,-1.82 -0.6,-1.22 -0.34,-3.12 0.77,-5.7l4.37 -10.16c0,-0.01 0,-0.01 0.01,-0.02 0.37,-0.78 0.43,-1.41 0.18,-1.9 -0.22,-0.43 -0.7,-0.67 -1.46,-0.72 -0.21,-0.02 -0.39,-0.12 -0.5,-0.31 -0.11,-0.18 -0.11,-0.39 -0.02,-0.58l0.67 -1.38c0.09,-0.18 0.23,-0.29 0.42,-0.34 0.24,-0.05 0.49,-0.11 0.75,-0.16 0,-0 0.01,-0 0.01,-0 0.33,-0.08 0.68,-0.14 1.07,-0.17 0.39,-0.04 0.79,-0.06 1.2,-0.06 2.34,0 3.81,0.65 4.39,1.94 0.08,0.18 0.22,0.3 0.41,0.35 0.19,0.05 0.37,0.01 0.53,-0.1 0.79,-0.59 1.64,-1.08 2.56,-1.45 1.19,-0.49 2.38,-0.74 3.57,-0.74 2.01,0 3.41,0.63 4.19,1.88 0.78,1.25 0.64,3.11 -0.43,5.58 -0,0 -0,0.01 -0,0.01 -0.21,0.51 -0.49,1.2 -0.86,2.08 -0.37,0.88 -0.76,1.79 -1.17,2.73 -0.41,0.94 -0.79,1.82 -1.14,2.65 -0.35,0.82 -0.6,1.4 -0.77,1.76 -0,0 -0,0.01 -0,0.01 -0.33,0.74 -0.29,1.27 0.13,1.58 0.41,0.31 0.97,0.41 1.69,0.29 0.72,-0.12 1.49,-0.47 2.31,-1.06 0.59,-0.42 1.1,-0.96 1.54,-1.62 0.12,-0.18 0.31,-0.28 0.53,-0.28 0.22,0 0.4,0.11 0.52,0.29l0.32 0.5c0.12,0.19 0.13,0.4 0.04,0.61 -0.4,0.82 -0.91,1.58 -1.55,2.3 -0.72,0.8 -1.52,1.5 -2.4,2.09 -0.88,0.59 -1.83,1.06 -2.83,1.41 -1.01,0.35 -2,0.53 -2.99,0.53 -0.99,0 -1.84,-0.16 -2.56,-0.47 -0.72,-0.31 -1.26,-0.78 -1.63,-1.41 -0.37,-0.63 -0.54,-1.41 -0.49,-2.35 0.04,-0.94 0.33,-2.02 0.86,-3.23l4 -9.17c0,-0 0,-0.01 0,-0.01 0.24,-0.59 0.25,-1.04 0.03,-1.38 -0.23,-0.33 -0.59,-0.51 -1.08,-0.53 -0.49,-0.02 -1.08,0.1 -1.76,0.35 -0.64,0.24 -1.25,0.63 -1.84,1.17 -0.07,0.07 -0.12,0.14 -0.16,0.23 -0.06,0.15 -0.11,0.3 -0.16,0.46 -0.06,0.19 -0.13,0.39 -0.21,0.58 0,0 -0,0.01 -0,0.01 -0.73,1.86 -1.6,3.69 -2.37,5.55 -0.43,1.04 -0.84,1.99 -1.23,2.85 -0.39,0.86 -0.65,1.45 -0.77,1.76zm34.14 -17.75c1.6,0 2.81,0.55 3.64,1.65 0.12,-0.27 0.21,-0.51 0.27,-0.73 0.08,-0.27 0.32,-0.45 0.6,-0.45l5.48 0c0.21,0 0.4,0.1 0.52,0.28 0.12,0.18 0.14,0.39 0.06,0.58 -0.11,0.27 -0.25,0.59 -0.4,0.96 -0.37,0.86 -0.8,1.85 -1.29,2.97 -0.49,1.12 -1.01,2.29 -1.54,3.53 -0.53,1.23 -1.04,2.4 -1.51,3.5 -0.47,1.1 -0.88,2.05 -1.23,2.85 -0.34,0.78 -0.55,1.29 -0.64,1.54 -0,0.01 -0.01,0.03 -0.02,0.04 -0.32,0.73 -0.27,1.26 0.13,1.57 0.41,0.31 0.97,0.41 1.66,0.29 0.7,-0.12 1.47,-0.47 2.31,-1.06 0.6,-0.42 1.12,-0.96 1.57,-1.62 0.12,-0.18 0.31,-0.28 0.53,-0.27 0.22,0 0.4,0.11 0.52,0.29l0.32 0.5c0.12,0.19 0.13,0.4 0.03,0.61 -0.39,0.82 -0.91,1.58 -1.55,2.3 -0.72,0.8 -1.52,1.5 -2.4,2.09 -0.88,0.59 -1.83,1.06 -2.83,1.41 -1.01,0.35 -2,0.53 -2.99,0.53 -1.27,0 -2.31,-0.25 -3.11,-0.76 -0.58,-0.37 -1,-0.87 -1.27,-1.5 -0.08,-0.18 -0.22,-0.3 -0.41,-0.36 -0.19,-0.05 -0.37,-0.02 -0.53,0.09 -0.96,0.7 -1.93,1.26 -2.91,1.71 -1.21,0.55 -2.37,0.82 -3.48,0.82 -1.4,0 -2.54,-0.3 -3.42,-0.91 -0.88,-0.61 -1.51,-1.44 -1.88,-2.5 -0.37,-1.06 -0.48,-2.3 -0.34,-3.73 0.14,-1.43 0.59,-2.95 1.32,-4.55 0,-0 0,-0.01 0,-0.01 1.77,-3.99 3.96,-6.93 6.59,-8.81 2.63,-1.88 5.36,-2.82 8.2,-2.82zm2.26 3.58c-0.36,-0.31 -0.85,-0.46 -1.46,-0.46 -0.78,0 -1.51,0.15 -2.19,0.44 -0.68,0.29 -1.36,0.76 -2.03,1.41 -0.68,0.65 -1.37,1.5 -2.07,2.56 -0.7,1.06 -1.44,2.35 -2.21,3.87 -0,0 -0,0.01 -0.01,0.01 -0.61,1.13 -1.1,2.2 -1.44,3.2 -0.35,1 -0.54,1.87 -0.58,2.62 -0.04,0.75 0.09,1.33 0.4,1.76 0.31,0.43 0.81,0.65 1.51,0.65 0.7,0 1.46,-0.2 2.28,-0.59 0.77,-0.37 1.54,-0.87 2.31,-1.51 0.1,-0.09 0.17,-0.19 0.2,-0.32 0.12,-0.44 0.29,-0.89 0.5,-1.33 0,-0.01 0.01,-0.02 0.01,-0.03l4.95 -11.56c0.11,-0.26 0.04,-0.54 -0.17,-0.72zm25.96 6.54c1.19,0 1.97,0.45 2.34,1.35 0.37,0.9 0.29,1.98 -0.25,3.23 -0.57,1.33 -1.32,2.39 -2.25,3.17 -0.72,0.61 -1.49,1.01 -2.31,1.22 -0.21,0.05 -0.36,0.19 -0.43,0.38 -0.08,0.2 -0.05,0.4 0.07,0.57 0.18,0.26 0.4,0.48 0.67,0.67 0.53,0.37 1.21,0.56 2.03,0.56l0.28 0c0.02,0 0.03,-0 0.05,-0 1.06,-0.08 1.88,-0.47 2.47,-1.17 0.59,-0.7 1.07,-1.44 1.44,-2.22 0,-0.01 0.01,-0.02 0.01,-0.03 0.09,-0.21 0.36,-0.87 0.83,-1.99 0.47,-1.14 1.05,-2.5 1.73,-4.09 0.68,-1.59 1.42,-3.3 2.22,-5.14 0.8,-1.84 1.55,-3.59 2.25,-5.23 0.7,-1.65 1.31,-3.08 1.82,-4.29 0.25,-0.6 0.46,-1.09 0.63,-1.48 0.09,-0.2 0.07,-0.41 -0.05,-0.59 -0.12,-0.18 -0.31,-0.28 -0.52,-0.28l-2.78 0c-0.22,0 -0.41,-0.11 -0.53,-0.3 -0.12,-0.19 -0.13,-0.41 -0.03,-0.61l0.67 -1.34c0.11,-0.22 0.32,-0.34 0.56,-0.34l12.38 0c0.22,0 0.42,0.11 0.53,0.3 0.12,0.19 0.12,0.41 0.02,0.61l-0.7 1.34c-0.11,0.21 -0.32,0.33 -0.55,0.33l-2.04 0c-0.26,0 -0.48,0.15 -0.58,0.39 -0.3,0.76 -0.67,1.67 -1.11,2.75 -0.51,1.27 -1.06,2.64 -1.63,4.09 -0.57,1.45 -1.17,2.93 -1.79,4.44 -0.62,1.51 -1.19,2.91 -1.72,4.2 -0.54,1.29 -1,2.42 -1.39,3.38 -0.39,0.95 -0.64,1.58 -0.77,1.9 -0,0.01 -0,0.01 -0.01,0.02 -1.15,2.66 -2.63,4.6 -4.43,5.81 -1.81,1.21 -4.03,1.82 -6.66,1.82l-0.24 0c-0.01,0 -0.01,0 -0.02,0 -1.43,-0.04 -2.63,-0.31 -3.6,-0.82 -0.96,-0.51 -1.7,-1.19 -2.22,-2.03 -0.51,-0.84 -0.79,-1.78 -0.83,-2.82 -0.04,-1.04 0.17,-2.11 0.62,-3.2 0.62,-1.45 1.43,-2.58 2.43,-3.38 1.01,-0.8 2.13,-1.2 3.36,-1.2zm33.09 -10.11c1.6,0 2.81,0.55 3.64,1.65 0.12,-0.27 0.21,-0.51 0.28,-0.73 0.08,-0.27 0.32,-0.45 0.6,-0.45l5.48 0c0.21,0 0.4,0.1 0.52,0.28 0.12,0.18 0.14,0.39 0.06,0.58 -0.11,0.27 -0.25,0.59 -0.41,0.96 -0.37,0.86 -0.8,1.85 -1.29,2.97 -0.49,1.12 -1.01,2.29 -1.54,3.53 -0.53,1.23 -1.04,2.4 -1.51,3.5 -0.47,1.1 -0.88,2.05 -1.23,2.85 -0.34,0.78 -0.55,1.29 -0.64,1.54 -0,0.01 -0.01,0.03 -0.02,0.04 -0.32,0.73 -0.27,1.26 0.13,1.57 0.41,0.31 0.96,0.41 1.66,0.29 0.7,-0.12 1.47,-0.47 2.31,-1.06 0.6,-0.42 1.12,-0.96 1.57,-1.62 0.12,-0.18 0.31,-0.28 0.53,-0.27 0.22,0 0.4,0.11 0.52,0.29l0.32 0.5c0.12,0.19 0.13,0.41 0.03,0.61 -0.39,0.82 -0.91,1.58 -1.55,2.3 -0.72,0.8 -1.52,1.5 -2.4,2.09 -0.88,0.59 -1.83,1.06 -2.83,1.41 -1.01,0.35 -2,0.53 -2.99,0.53 -1.27,0 -2.31,-0.25 -3.11,-0.76 -0.58,-0.37 -1,-0.87 -1.27,-1.5 -0.08,-0.18 -0.22,-0.3 -0.41,-0.36 -0.19,-0.05 -0.37,-0.02 -0.53,0.09 -0.96,0.7 -1.93,1.26 -2.91,1.71 -1.21,0.55 -2.37,0.82 -3.48,0.82 -1.4,0 -2.54,-0.3 -3.42,-0.91 -0.88,-0.61 -1.51,-1.44 -1.88,-2.5 -0.37,-1.06 -0.48,-2.3 -0.34,-3.73 0.14,-1.43 0.58,-2.95 1.32,-4.55 0,-0 0,-0.01 0,-0.01 1.77,-3.99 3.96,-6.93 6.59,-8.81 2.63,-1.88 5.36,-2.82 8.2,-2.82zm2.26 3.58c-0.36,-0.31 -0.85,-0.46 -1.46,-0.46 -0.78,0 -1.51,0.15 -2.19,0.44 -0.68,0.29 -1.36,0.76 -2.03,1.41 -0.68,0.65 -1.37,1.5 -2.07,2.56 -0.7,1.06 -1.44,2.35 -2.21,3.87 -0,0 -0,0.01 -0.01,0.01 -0.61,1.13 -1.1,2.2 -1.44,3.2 -0.35,1 -0.54,1.87 -0.58,2.62 -0.04,0.75 0.09,1.33 0.4,1.76 0.31,0.43 0.81,0.65 1.51,0.65 0.7,0 1.46,-0.2 2.28,-0.59 0.77,-0.37 1.54,-0.87 2.31,-1.51 0.1,-0.09 0.17,-0.19 0.2,-0.32 0.12,-0.44 0.29,-0.89 0.5,-1.33 0,-0.01 0.01,-0.02 0.01,-0.03l4.95 -11.56c0.11,-0.26 0.04,-0.54 -0.17,-0.72zm32.35 -2.23c-0.23,0.52 -0.48,1.09 -0.75,1.71 -0.43,0.98 -0.88,2.03 -1.36,3.14 -0.47,1.12 -0.95,2.27 -1.45,3.47 -0.49,1.2 -1,2.36 -1.48,3.5 -1.12,2.66 -3.49,8.18 -4.73,11.1 -1.09,2.59 -2.62,5.51 -4.56,8.16 -8.46,11.56 -25.86,11.91 -14.94,-4.34 0.13,-0.2 0.35,-0.3 0.59,-0.27 0.24,0.03 0.43,0.18 0.51,0.4l0.26 0.71c0.07,0.19 0.05,0.39 -0.06,0.56 -1.18,1.77 -3.48,6.04 -1.98,7.71 0.51,0.57 1.18,0.85 2,0.85 0.78,0 1.57,-0.27 2.37,-0.82 2.82,-1.93 7.34,-9.81 9.33,-14.01 0.11,-0.24 0.07,-0.51 -0.12,-0.7 -0.19,-0.19 -0.46,-0.24 -0.7,-0.13 -0.41,0.18 -0.81,0.34 -1.23,0.48 -0.94,0.31 -1.89,0.47 -2.84,0.47 -3.5,0 -4.72,-0.94 -4.65,-4.2 0.02,-0.92 0.3,-2.01 0.83,-3.26 0.21,-0.47 0.52,-1.19 0.96,-2.15 0.43,-0.96 0.88,-1.97 1.36,-3.03 0.47,-1.06 0.9,-2.06 1.29,-3 0.38,-0.93 0.66,-1.6 0.82,-2.04 0.01,-0.01 0.01,-0.03 0.02,-0.04 0.36,-0.78 0.42,-1.41 0.18,-1.89 -0.21,-0.43 -0.69,-0.67 -1.44,-0.72 -0.22,-0.02 -0.39,-0.13 -0.5,-0.32 -0.11,-0.19 -0.11,-0.4 -0.01,-0.59l0.7 -1.38c0.09,-0.17 0.23,-0.28 0.41,-0.32 0.24,-0.06 0.49,-0.11 0.76,-0.17 0,-0 0.01,-0 0.01,-0 0.33,-0.08 0.68,-0.14 1.04,-0.17 0.37,-0.04 0.78,-0.06 1.23,-0.06 2.34,0 3.81,0.62 4.4,1.85 0.6,1.23 0.32,3.14 -0.83,5.72 -0,0 -0,0.01 -0.01,0.01 -0.25,0.59 -0.58,1.39 -1.01,2.4 -0.43,1.02 -0.87,2.03 -1.32,3.05 -0,0 -0,0.01 -0,0.01 -0.49,1.17 -1,2.38 -1.53,3.62 -0,0.01 -0.01,0.02 -0.01,0.03 -0.24,0.66 -0.24,1.15 0.01,1.48 0.25,0.33 0.63,0.51 1.14,0.53 0.51,0.02 1.12,-0.13 1.82,-0.44 0.67,-0.3 1.3,-0.76 1.89,-1.39 0.05,-0.06 0.09,-0.11 0.12,-0.18l6.82 -15.86c0.1,-0.23 0.32,-0.38 0.57,-0.38l5.47 0c0.22,0 0.4,0.1 0.52,0.28 0.12,0.18 0.14,0.39 0.05,0.59zm14.43 -1.35c1.6,0 2.81,0.55 3.64,1.65 0.12,-0.27 0.21,-0.51 0.27,-0.73 0.08,-0.27 0.32,-0.45 0.6,-0.45l5.48 0c0.21,0 0.4,0.1 0.52,0.28 0.12,0.18 0.14,0.39 0.06,0.58 -0.11,0.27 -0.25,0.59 -0.4,0.96 -0.37,0.86 -0.8,1.85 -1.29,2.97 -0.49,1.12 -1.01,2.29 -1.54,3.53 -0.54,1.23 -1.04,2.4 -1.51,3.5 -0.47,1.1 -0.88,2.05 -1.23,2.85 -0.34,0.78 -0.55,1.29 -0.64,1.54 -0,0.01 -0.01,0.03 -0.02,0.04 -0.32,0.73 -0.28,1.26 0.13,1.57 0.41,0.31 0.96,0.41 1.66,0.29 0.7,-0.12 1.47,-0.47 2.31,-1.06 0.6,-0.42 1.12,-0.96 1.57,-1.62 0.12,-0.18 0.31,-0.28 0.52,-0.27 0.22,0 0.4,0.11 0.52,0.29l0.32 0.5c0.12,0.19 0.13,0.41 0.03,0.61 -0.4,0.82 -0.91,1.58 -1.55,2.3 -0.72,0.8 -1.52,1.5 -2.4,2.09 -0.88,0.59 -1.83,1.06 -2.83,1.41 -1.01,0.35 -2,0.53 -2.99,0.53 -1.27,0 -2.31,-0.25 -3.11,-0.76 -0.58,-0.37 -1,-0.87 -1.27,-1.5 -0.08,-0.18 -0.22,-0.3 -0.41,-0.36 -0.19,-0.05 -0.37,-0.02 -0.53,0.09 -0.96,0.7 -1.93,1.26 -2.91,1.71 -1.21,0.55 -2.37,0.82 -3.48,0.82 -1.4,0 -2.54,-0.3 -3.42,-0.91 -0.88,-0.61 -1.51,-1.44 -1.88,-2.5 -0.37,-1.06 -0.48,-2.3 -0.34,-3.73 0.14,-1.43 0.59,-2.95 1.32,-4.55 0,-0 0,-0.01 0,-0.01 1.77,-3.99 3.96,-6.93 6.59,-8.81 2.63,-1.88 5.36,-2.82 8.19,-2.82zm2.26 3.58c-0.36,-0.31 -0.85,-0.46 -1.46,-0.46 -0.78,0 -1.51,0.15 -2.19,0.44 -0.68,0.29 -1.35,0.76 -2.03,1.41 -0.68,0.65 -1.37,1.5 -2.07,2.56 -0.7,1.06 -1.44,2.35 -2.21,3.87 -0,0 -0,0.01 -0.01,0.01 -0.61,1.13 -1.1,2.2 -1.45,3.2 -0.35,1 -0.54,1.87 -0.58,2.62 -0.04,0.75 0.09,1.33 0.4,1.76 0.31,0.43 0.81,0.65 1.51,0.65 0.7,0 1.46,-0.2 2.28,-0.59 0.77,-0.37 1.54,-0.87 2.31,-1.51 0.1,-0.09 0.17,-0.19 0.2,-0.32 0.12,-0.44 0.29,-0.89 0.5,-1.33 0,-0.01 0.01,-0.02 0.01,-0.03l4.95 -11.56c0.11,-0.26 0.04,-0.54 -0.17,-0.72z"/>
   <path class="fil1" d="M80.63 57.53l1.03 0c0.09,0 0.16,0.07 0.16,0.16l0 9.04c0,0.09 -0.07,0.16 -0.16,0.16l-1.03 0c-0.09,0 -0.16,-0.07 -0.16,-0.16l0 -6.67c0,-0.15 -0.19,-0.22 -0.28,-0.1l-2.55 3.2c-0.03,0.04 -0.07,0.06 -0.12,0.06l-0.1 0c-0.05,0 -0.09,-0.02 -0.12,-0.06l-2.58 -3.21c-0.09,-0.12 -0.28,-0.05 -0.28,0.1l0 6.67c0,0.09 -0.07,0.16 -0.16,0.16l-1.03 0c-0.09,0 -0.16,-0.07 -0.16,-0.16l0 -9.04c0,-0.09 0.07,-0.16 0.16,-0.16l1.06 0c0.05,0 0.09,0.02 0.12,0.06l2.92 3.63c0.06,0.08 0.18,0.08 0.25,-0l2.9 -3.63c0.03,-0.04 0.07,-0.06 0.12,-0.06zm25.31 -0.14c1.45,0 2.65,0.46 3.61,1.37 0.96,0.91 1.44,2.06 1.44,3.44 0,1.38 -0.48,2.52 -1.45,3.43 -0.97,0.91 -2.19,1.36 -3.67,1.36 -1.41,0 -2.58,-0.45 -3.52,-1.36 -0.94,-0.9 -1.41,-2.04 -1.41,-3.4 0,-1.4 0.47,-2.56 1.42,-3.47 0.95,-0.92 2.14,-1.37 3.59,-1.37zm0.05 1.28c-1.07,0 -1.95,0.33 -2.64,1 -0.69,0.67 -1.03,1.52 -1.03,2.56 0,1.01 0.35,1.85 1.04,2.52 0.69,0.67 1.55,1 2.59,1 1.04,0 1.91,-0.34 2.61,-1.02 0.7,-0.68 1.05,-1.53 1.05,-2.55 0,-0.99 -0.35,-1.82 -1.05,-2.5 -0.7,-0.68 -1.55,-1.02 -2.57,-1.02zm24.15 8.06l0 -9.04c0,-0.09 0.07,-0.16 0.16,-0.16l3 0c1.28,0 2.28,0.19 3.03,0.57 0.74,0.38 1.33,0.94 1.77,1.69 0.44,0.74 0.66,1.55 0.66,2.43 0,0.63 -0.12,1.23 -0.36,1.8 -0.24,0.57 -0.59,1.08 -1.03,1.51 -0.46,0.45 -0.99,0.79 -1.59,1.01 -0.35,0.14 -0.68,0.23 -0.97,0.28 -0.29,0.05 -0.86,0.07 -1.69,0.07l-2.81 0c-0.09,0 -0.16,-0.07 -0.16,-0.16zm3.02 -8l-1.52 0c-0.09,0 -0.16,0.07 -0.16,0.16l0 6.65c0,0.09 0.07,0.16 0.16,0.16l1.56 0c0.67,0 1.19,-0.05 1.56,-0.14 0.37,-0.09 0.68,-0.21 0.93,-0.35 0.25,-0.14 0.48,-0.31 0.68,-0.52 0.66,-0.67 0.99,-1.52 0.99,-2.54 0,-1.01 -0.34,-1.83 -1.02,-2.46 -0.25,-0.24 -0.54,-0.43 -0.86,-0.59 -0.32,-0.15 -0.63,-0.25 -0.92,-0.3 -0.29,-0.05 -0.76,-0.07 -1.4,-0.07zm27.11 -1.25l0.74 0c0.06,0 0.12,0.03 0.14,0.09l4.05 9.09c0.02,0.05 0.02,0.1 -0.01,0.15 -0.03,0.05 -0.08,0.07 -0.13,0.07l-1.03 0c-0.06,0 -0.12,-0.03 -0.14,-0.09l-1.16 -2.58c-0.03,-0.06 -0.08,-0.09 -0.14,-0.09l-3.78 0c-0.06,0 -0.12,0.04 -0.15,0.1l-1.09 2.58c-0.03,0.06 -0.08,0.1 -0.15,0.1l-1.03 0c-0.05,0 -0.1,-0.03 -0.13,-0.07 -0.03,-0.05 -0.04,-0.1 -0.01,-0.15l3.88 -9.09c0.03,-0.06 0.08,-0.1 0.14,-0.1zm1.78 5.22l-1.27 -2.84c-0.03,-0.06 -0.08,-0.09 -0.15,-0.09 -0.06,0 -0.12,0.04 -0.14,0.1l-1.18 2.84c-0.02,0.05 -0.02,0.1 0.01,0.15 0.03,0.05 0.08,0.07 0.13,0.07l2.46 0c0.05,0 0.1,-0.03 0.13,-0.07 0.03,-0.05 0.03,-0.1 0.01,-0.15zm24.11 0.26l-1.02 -0.62c-0.64,-0.39 -1.1,-0.78 -1.37,-1.15 -0.27,-0.38 -0.4,-0.81 -0.4,-1.31 0,-0.74 0.26,-1.34 0.77,-1.8 0.51,-0.46 1.18,-0.69 1.99,-0.69 0.75,0 1.45,0.2 2.08,0.61 0.05,0.03 0.07,0.08 0.07,0.13l0 1.08c0,0.06 -0.03,0.12 -0.09,0.14 -0.06,0.03 -0.12,0.02 -0.17,-0.02 -0.6,-0.5 -1.24,-0.75 -1.92,-0.75 -0.44,0 -0.8,0.1 -1.08,0.3 -0.28,0.2 -0.42,0.46 -0.42,0.78 0,0.28 0.1,0.54 0.31,0.79 0.21,0.24 0.54,0.5 1,0.77l1.02 0.61c1.14,0.68 1.71,1.55 1.71,2.61 0,0.75 -0.25,1.36 -0.75,1.83 -0.5,0.47 -1.16,0.7 -1.96,0.7 -0.9,0 -1.72,-0.27 -2.46,-0.81 -0.04,-0.03 -0.07,-0.08 -0.07,-0.13l0 -1.19c0,-0.14 0.18,-0.21 0.27,-0.11 0.66,0.7 1.41,1.06 2.24,1.06 0.42,0 0.77,-0.12 1.05,-0.35 0.28,-0.24 0.42,-0.53 0.42,-0.88 0,-0.57 -0.41,-1.11 -1.23,-1.62z"/>
  </g>
 </g>
</svg>
